# xmcd CD database file
#
# Track frame offsets:
#	150
#	20636
#	48013
#	76695
#	118252
#	151281
#	161732
#	176663
#	191430
#	212000
#	231835
#	238969
#	263199
#	280778
#
# Disc length: 4089 seconds
#
# Revision: 0
# Processed by: cddbd v1.5.2PL0 Copyright (c) Steve Scherf et al.
# Submitted via: CDex 1.70beta2
#
DISCID=ba0ff70e
DTITLE=Various Artist - Live at WMSE Volume 1
DYEAR=2001
DGENRE=Blues
TTITLE0=The Groove Hogs - Blues is my Business
TTITLE1=Greg Koch - Red House
TTITLE2=Terry Frank - Someboy Else
TTITLE3=Mississippi Cactus - Loan Me a Dime
TTITLE4=Zoot Suit Bookie - Robert's Blues
TTITLE5=Chris Whitley - Firefighter
TTITLE6=Paul Cebar - Romance in the Dark
TTITLE7=Jim Libnan/Steve Cohen - Aint that Loving You, Baby
TTITLE8=Jim Liban Trio - Walkin' By Myself
TTITLE9=Dos Proberos - France Blues
TTITLE10=Sawdust Symphony - The Chicken Shack Song
TTITLE11=Sixty Watt Sara - All Night to Kansas City
TTITLE12=Aimless Blades - The Last Words From Your Mouth
TTITLE13=Kevn Kinney - Back Roads and Rainy Days
EXTD=YEAR: 2001
EXTT0=
EXTT1=
EXTT2=
EXTT3=
EXTT4=
EXTT5=
EXTT6=
EXTT7=
EXTT8=
EXTT9=
EXTT10=
EXTT11=
EXTT12=
EXTT13=
PLAYORDER=
